<svg version="1.2" baseProfile="tiny-ps" xmlns="http://www.w3.org/2000/svg" viewBox="0 0 167 157" width="167" height="157"><title>purefunc_money_logo</title><style>tspan { white-space:pre }</style><path fill="#ffffff" aria-label="$_"  d="M46.35 0.6L34.2 0.6L34.2 22.95C15.6 24.9 4.05 36 4.05 52.35C4.05 66.45 12.6 75.6 34.2 82.8L34.2 114C25.35 113.4 18.45 109.8 11.7 103.95L0.3 117.15C7.65 124.2 19.35 130.35 34.2 131.4L34.2 153.3L46.35 153.3L46.35 130.95C66.6 128.4 77.7 115.2 77.7 98.4C77.7 80.4 66.45 72.3 46.35 65.7L46.35 39.45C52.5 39.9 58.8 42.15 64.35 46.8L75.9 34.65C68.55 28.5 58.65 23.85 46.35 22.8ZM34.2 39.6L34.2 61.05C26.4 57.45 25.2 54.45 25.2 49.5C25.2 44.7 28.2 40.65 34.2 39.6ZM46.35 87.6C53.85 91.35 55.65 95.4 55.65 101.25C55.65 108 52.5 112.2 46.35 113.55ZM91.5 156.9L166.5 156.9L166.5 138.3L91.5 138.3Z" /></svg>